<?xml version="1.0" encoding="utf-8"?>
<!-- Generator: Adobe Illustrator 24.3.0, SVG Export Plug-In . SVG Version: 6.00 Build 0)  -->
<svg version="1.1" id="레이어_1" xmlns="http://www.w3.org/2000/svg" xmlns:xlink="http://www.w3.org/1999/xlink" x="0px"
	 y="0px" viewBox="0 0 108.4 107.5" style="enable-background:new 0 0 108.4 107.5;" xml:space="preserve">
<style type="text/css">
	.st0{fill:#88D1FF;}
	.st1{fill:#FFFFFF;}
	.st2{fill:#29ABE2;}
	.st3{clip-path:url(#SVGID_2_);fill:#1B1464;}
	.st4{clip-path:url(#SVGID_2_);fill:#0071BC;}
	.st5{fill:#1B1464;}
</style>
<path class="st0" d="M73.2,100.7H34.8c-15.6,0-28.3-12.7-28.3-28.3V34c0-15.6,12.7-28.3,28.3-28.3l38.4,0
	c15.6,0,28.3,12.7,28.3,28.3v38.4C101.5,88.1,88.9,100.7,73.2,100.7z"/>
<path class="st1" d="M51.7,36.1c3.5,0,6.6,0.9,9.3,2.7c2.8,1.8,4.9,4.4,6.5,7.8s2.3,7.5,2.3,12.2c0,5.7-1.1,10.3-3.2,14
	c-1.5,2.6-3.6,4.7-6.2,6.3c-2.6,1.6-5.1,2.4-7.5,2.4c-1.4,0-2.6-0.5-3.6-1.5c-1-1-1.5-2.2-1.5-3.7c0-1.2,0.4-2.3,1.2-3.1
	c0.8-0.8,1.9-1.6,3.5-2.2c1.8-0.7,3.3-1.5,4.6-2.4c1.2-0.8,2.2-2,3-3.6c0.8-1.5,1.2-3.6,1.2-6.1c0-3.4-0.8-6.2-2.4-8.4
	s-3.6-3.2-6-3.2c-1.9,0-3.4,0.6-4.6,1.7c-1.2,1.2-2.1,2.7-2.7,4.5s-1.3,4.3-2,7.4c-1,4.1-2.1,7.6-3.4,10.3s-3,5-5.3,6.6
	c-2.2,1.6-5,2.4-8.3,2.4c-3.2,0-6-0.9-8.4-2.6c-2.4-1.7-4.3-4.2-5.6-7.5c-1.3-3.3-2-7.1-2-11.5c0-3.5,0.4-6.6,1.3-9.1
	c0.9-2.6,2-4.7,3.5-6.4c1.4-1.7,3-2.9,4.6-3.7c1.6-0.8,3.1-1.2,4.6-1.2c1.4,0,2.6,0.5,3.7,1.5c1.1,1,1.7,2.2,1.7,3.7
	c0,1.3-0.3,2.3-1,3c-0.7,0.7-1.8,1.4-3.3,2.2c-2.2,1-3.8,2.3-5.1,3.8c-1.2,1.5-1.8,3.8-1.8,7c0,3,0.7,5.4,2,7.2
	c1.3,1.8,2.9,2.8,4.7,2.8c1.1,0,2.1-0.3,3-0.9c0.8-0.6,1.5-1.5,2.1-2.6c0.6-1.1,1.1-2.2,1.4-3.3c0.3-1.1,0.8-3,1.5-5.5
	c0.8-3.2,1.6-6.2,2.5-8.8c0.9-2.6,2-4.8,3.3-6.7c1.3-1.8,2.9-3.3,4.9-4.3C46.3,36.6,48.8,36.1,51.7,36.1z"/>
<path class="st2" d="M71.2,64.1H46.4c-2.1,0-3.7-0.5-4.7-1.4S40,60.5,40,59c0-1.6,0.5-2.9,1.6-3.8s2.6-1.4,4.7-1.4h25.3
	c2.9,0,5.3-0.3,7.2-1c1.9-0.6,3.4-1.8,4.5-3.4c1.1-1.6,1.6-3.9,1.6-6.9c0-4.1-1.1-7-3.3-8.6c-2.2-1.7-5.5-2.5-9.9-2.5H46.4
	c-2.1,0-3.7-0.5-4.8-1.4c-1-0.9-1.6-2.2-1.6-3.8c0-1.6,0.5-2.8,1.6-3.8c1-1,2.6-1.5,4.8-1.5h24.8c4,0,7.4,0.4,10.1,1.2
	c2.7,0.8,5.1,2.3,7.1,4.4c1.7,1.9,3,4.1,3.8,6.5c0.8,2.5,1.2,5.4,1.2,8.7c0,4-0.4,7.4-1.3,10.2c-0.9,2.9-2.2,5.2-4,7
	c-1.8,1.8-4.1,3.1-6.9,4C78.4,63.7,75,64.1,71.2,64.1z"/>
<g>
	<defs>
		<path id="SVGID_1_" d="M51.7,36.1c3.5,0,6.6,0.9,9.3,2.7c2.8,1.8,4.9,4.4,6.5,7.8s2.3,7.5,2.3,12.2c0,5.7-1.1,10.3-3.2,14
			c-1.5,2.6-3.6,4.7-6.2,6.3c-2.6,1.6-5.1,2.4-7.5,2.4c-1.4,0-2.6-0.5-3.6-1.5c-1-1-1.5-2.2-1.5-3.7c0-1.2,0.4-2.3,1.2-3.1
			c0.8-0.8,1.9-1.6,3.5-2.2c1.8-0.7,3.3-1.5,4.6-2.4c1.2-0.8,2.2-2,3-3.6c0.8-1.5,1.2-3.6,1.2-6.1c0-3.4-0.8-6.2-2.4-8.4
			s-3.6-3.2-6-3.2c-1.9,0-3.4,0.6-4.6,1.7c-1.2,1.2-2.1,2.7-2.7,4.5s-1.3,4.3-2,7.4c-1,4.1-2.1,7.6-3.4,10.3s-3,5-5.3,6.6
			c-2.2,1.6-5,2.4-8.3,2.4c-3.2,0-6-0.9-8.4-2.6c-2.4-1.7-4.3-4.2-5.6-7.5c-1.3-3.3-2-7.1-2-11.5c0-3.5,0.4-6.6,1.3-9.1
			c0.9-2.6,2-4.7,3.5-6.4c1.4-1.7,3-2.9,4.6-3.7c1.6-0.8,3.1-1.2,4.6-1.2c1.4,0,2.6,0.5,3.7,1.5c1.1,1,1.7,2.2,1.7,3.7
			c0,1.3-0.3,2.3-1,3c-0.7,0.7-1.8,1.4-3.3,2.2c-2.2,1-3.8,2.3-5.1,3.8c-1.2,1.5-1.8,3.8-1.8,7c0,3,0.7,5.4,2,7.2
			c1.3,1.8,2.9,2.8,4.7,2.8c1.1,0,2.1-0.3,3-0.9c0.8-0.6,1.5-1.5,2.1-2.6c0.6-1.1,1.1-2.2,1.4-3.3c0.3-1.1,0.8-3,1.5-5.5
			c0.8-3.2,1.6-6.2,2.5-8.8c0.9-2.6,2-4.8,3.3-6.7c1.3-1.8,2.9-3.3,4.9-4.3C46.3,36.6,48.8,36.1,51.7,36.1z"/>
	</defs>
	<clipPath id="SVGID_2_">
		<use xlink:href="#SVGID_1_"  style="overflow:visible;"/>
	</clipPath>
	<path class="st3" d="M37.5,70.2c-1-1.8-2.5-2.4-5.5-2.9c-0.3,0-0.5-0.1-0.8,0c-0.2,0-0.4,0-0.6,0.1c-0.1,0-0.1,0-0.2,0
		c-0.1,0-0.1,0-0.3,0c-0.1,0-0.3,0.1-0.4,0.1c-1-0.1-1.8,0.1-2.3,0.3c-0.8,0.3-1.2,0.6-2,0.7c-0.1,0-0.6,0-1.3-0.2
		c-1.3-0.4-2-1.5-2.4-2c-0.5-0.7-1.5-2.5-1.6-6.7c-0.1-3.6-0.2-5.5,0.9-6.8c0.5-0.7,0.7-0.6,5.7-3.1c3-1.5,3.7-1.9,4.3-2.9
		c0.5-0.9,0.6-2,0.8-3.7c0.1-1.2,0.2-1.7,0-2.4c-0.5-1.4-1.8-2.2-2.4-2.5c-0.9-0.5-1.2-0.4-3.4-1.1c-1.5-0.5-1.5-0.6-2.1-0.8
		c-2.4-0.6-4.8,0.7-5.7,1.2c-2.4,1.4-3.5,3.4-4.4,4.8c-0.5,0.9-1.4,2.6-2.4,7.3c-0.9,4.1-1.4,6.2-1.4,9.2c0,5.9,1.5,10.2,2,11.6
		c1.1,2.9,2.3,5.9,5.2,8c1.1,0.8,2.3,1.4,2.9,1.6c2,0.9,4,1.8,6.5,1.8c3.3-0.1,5.9-1.9,8.6-3.8c0.3-0.2,0.4-0.3,0.5-0.4
		C38,75.7,38.9,72.7,37.5,70.2z"/>
	<path class="st4" d="M68,46.4c-1.9-3.8-4.3-5.8-4.8-6.3c-2.4-2.1-4.8-3-5.4-3.2c-1.1-0.4-3.6-1.5-6.8-1.1L49.6,36
		c-0.1,0-0.1,0-0.2,0c-0.4,0.1-0.8,0.2-1.1,0.3c-1.3,0.3-2.4,1.3-2.8,2.5c-0.2,0.5-0.3,1-0.5,1.4c-0.1,0.4-0.2,0.9-0.2,1.3
		c0,0.3,0,0.7,0.1,1c0.1,0.9,0.5,1.7,1.1,2.4c0.2,0.2,0.3,0.3,0.5,0.5c0.6,0.4,1.2,0.7,1.9,1.1c0.1,0,0.2,0.1,0.3,0.1
		c0.2,0.1,0.4,0.2,0.4,0.2c0.4,0.2,5.6,1.2,6.1,1.4C58.8,49,60.9,55,61,59.1c0,1.2,0.1,3.6-1.3,6.1c-0.9,1.6-2,2.8-3.4,3.6
		c-1.4,0.9-3.1,1.7-5.2,2.4c-1.7,0.6-3,1.3-3.9,2.2c-0.9,0.9-1.3,1.9-1.3,3.1c0,1.5,0.6,2.8,1.7,3.8c0.2,0.2,0.5,0.5,1.4,0.9
		c1,0.5,2,1,2.4,1.1c1.9,0.7,6.4,0.4,9.7-2.3c1.2-0.9,2.3-2.4,4.5-5.2c0.7-0.8,1.2-1.6,1.4-1.9c2.4-3.7,3.6-8.4,3.6-14.1
		C70.6,56.1,70.5,51.5,68,46.4z"/>
</g>
<path class="st5" d="M-33.8,36.5"/>
</svg>
